
<svg xmlns="http://www.w3.org/2000/svg" width="32" height="32" fill="#84BD00" viewBox="0 0 24 24">
  <path d="M12.004 2c-5.519 0-10 4.481-10 10 0 1.77.474 3.498 1.376 5.02L2 22l5.146-1.36A9.944 9.944 0 0 0 12.004 22c5.519 0 10-4.481 10-10s-4.481-10-10-10Zm0 2c4.411 0 8 3.589 8 8s-3.589 8-8 8c-1.444 0-2.843-.389-4.08-1.123l-.407-.238-2.512.663.67-2.453-.255-.421A7.946 7.946 0 0 1 4.004 12c0-4.411 3.589-8 8-8Zm3.323 10.773c-.142-.071-.839-.414-.968-.46-.129-.046-.223-.071-.317.071s-.365.46-.448.554c-.082.093-.165.104-.306.035-.142-.071-.599-.22-1.141-.703-.422-.375-.708-.84-.79-.982-.082-.142-.009-.218.062-.289.064-.063.142-.165.213-.248.071-.082.094-.142.142-.236.047-.094.024-.177-.012-.248-.035-.071-.317-.762-.435-1.043-.114-.273-.231-.236-.317-.24h-.272c-.094 0-.247.035-.377.165-.13.13-.496.486-.496 1.183s.508 1.373.578 1.467c.071.094 1.001 1.53 2.426 2.146.34.147.605.235.812.301.341.108.651.092.896.056.274-.041.839-.343.957-.675.118-.331.118-.614.083-.675-.035-.06-.13-.094-.272-.165Z"/>
</svg>
